<mxfile host="app.diagrams.net" modified="2020-10-07T12:41:46.650Z" agent="5.0 (Windows)" etag="9JpHrUnucETLZZlq-qtt" version="13.7.7" type="github">
  <diagram id="L49nDd7WiCvF9cDpSTCV" name="Page-1">
    <mxGraphModel dx="910" dy="487" grid="1" gridSize="10" guides="1" tooltips="1" connect="1" arrows="1" fold="1" page="1" pageScale="1" pageWidth="1169" pageHeight="827" math="0" shadow="0">
      <root>
        <mxCell id="0" />
        <mxCell id="1" parent="0" />
        <mxCell id="8L-_xUGGk6t0tHvqpUdU-1" value="Requisition for Resource Materials Processes" style="swimlane;html=1;childLayout=stackLayout;resizeParent=1;resizeParentMax=0;horizontal=1;startSize=20;horizontalStack=0;" vertex="1" parent="1">
          <mxGeometry x="10" y="10" width="1150" height="490" as="geometry" />
        </mxCell>
        <mxCell id="8L-_xUGGk6t0tHvqpUdU-2" value="MCA/Staff" style="swimlane;html=1;startSize=20;horizontal=0;" vertex="1" parent="8L-_xUGGk6t0tHvqpUdU-1">
          <mxGeometry y="20" width="1150" height="220" as="geometry" />
        </mxCell>
        <mxCell id="8L-_xUGGk6t0tHvqpUdU-5" value="Start" style="rounded=1;whiteSpace=wrap;html=1;" vertex="1" parent="8L-_xUGGk6t0tHvqpUdU-2">
          <mxGeometry x="160" y="10" width="90" height="50" as="geometry" />
        </mxCell>
        <mxCell id="8L-_xUGGk6t0tHvqpUdU-7" value="" style="edgeStyle=orthogonalEdgeStyle;rounded=0;orthogonalLoop=1;jettySize=auto;html=1;entryX=0.5;entryY=0;entryDx=0;entryDy=0;" edge="1" parent="8L-_xUGGk6t0tHvqpUdU-2" source="8L-_xUGGk6t0tHvqpUdU-5" target="8L-_xUGGk6t0tHvqpUdU-8">
          <mxGeometry relative="1" as="geometry">
            <mxPoint x="205" y="125" as="targetPoint" />
          </mxGeometry>
        </mxCell>
        <mxCell id="8L-_xUGGk6t0tHvqpUdU-8" value="&lt;p class=&quot;western&quot; style=&quot;margin-bottom: 0in&quot; lang=&quot;en-GB&quot;&gt;&lt;br/&gt;Requisition for resource materials&lt;/p&gt;&lt;br/&gt;" style="rounded=0;whiteSpace=wrap;html=1;" vertex="1" parent="8L-_xUGGk6t0tHvqpUdU-2">
          <mxGeometry x="145" y="120" width="120" height="60" as="geometry" />
        </mxCell>
        <mxCell id="8L-_xUGGk6t0tHvqpUdU-3" value="Librarian" style="swimlane;html=1;startSize=20;horizontal=0;" vertex="1" parent="8L-_xUGGk6t0tHvqpUdU-1">
          <mxGeometry y="240" width="1150" height="250" as="geometry" />
        </mxCell>
        <mxCell id="8L-_xUGGk6t0tHvqpUdU-10" value="&lt;p class=&quot;western&quot; style=&quot;margin-bottom: 0in&quot; lang=&quot;en-GB&quot;&gt;Check availability of Resource material in stock&lt;/p&gt;" style="whiteSpace=wrap;html=1;rounded=0;" vertex="1" parent="8L-_xUGGk6t0tHvqpUdU-3">
          <mxGeometry x="145" y="40" width="120" height="60" as="geometry" />
        </mxCell>
        <mxCell id="8L-_xUGGk6t0tHvqpUdU-11" value="" style="edgeStyle=orthogonalEdgeStyle;rounded=0;orthogonalLoop=1;jettySize=auto;html=1;" edge="1" parent="8L-_xUGGk6t0tHvqpUdU-1" source="8L-_xUGGk6t0tHvqpUdU-8" target="8L-_xUGGk6t0tHvqpUdU-10">
          <mxGeometry relative="1" as="geometry" />
        </mxCell>
        <mxCell id="8L-_xUGGk6t0tHvqpUdU-9" value="Text" style="text;html=1;align=center;verticalAlign=middle;resizable=0;points=[];autosize=1;" vertex="1" parent="1">
          <mxGeometry x="290" y="130" width="40" height="20" as="geometry" />
        </mxCell>
      </root>
    </mxGraphModel>
  </diagram>
</mxfile>
